<svg xmlns="http://www.w3.org/2000/svg" xmlns:xlink="http://www.w3.org/1999/xlink" width="100" height="100" viewBox="0 0 100 100"><circle stroke="none" fill="#FFFFFF" r="48%" cx="50%" cy="50%"></circle><g transform="translate(50 50) scale(0.69 0.69) rotate(0) translate(-50 -50)" style="fill:#B30000"><svg fill="#B30000" xmlns="http://www.w3.org/2000/svg" xmlns:xlink="http://www.w3.org/1999/xlink" version="1.1" x="0px" y="0px" viewBox="0 0 60 60" style="enable-background:new 0 0 60 60;" xml:space="preserve"><g><path d="M7,60H1c-0.552,0-1-0.447-1-1V46c0-0.132,0.026-0.263,0.077-0.385l10-24C10.232,21.243,10.596,21,11,21   s0.768,0.243,0.923,0.615l6.188,14.852c0.107,0.258,0.102,0.549-0.015,0.803L7.908,59.418C7.745,59.772,7.391,60,7,60z M2,58h4.359   l9.738-21.168L11,24.6L2,46.2V58z"></path><path d="M32,27c-0.262,0-0.517-0.104-0.707-0.293L29,24.414l-2.293,2.293c-0.39,0.391-1.024,0.391-1.414,0l-2.616-2.616   c-0.296-0.296-0.376-0.745-0.201-1.125l6.616-14.384C29.255,8.228,29.609,8,30,8c0.39,0,0.745,0.228,0.908,0.582l5.74,12.478   c0.219,0.475,0.034,1.038-0.423,1.292l-2.4,1.334l-0.877,2.631c-0.11,0.329-0.382,0.577-0.719,0.657C32.154,26.991,32.076,27,32,27   z M24.583,23.169L26,24.586l2.293-2.293c0.39-0.391,1.024-0.391,1.414,0l1.856,1.855l0.488-1.465   c0.079-0.237,0.244-0.437,0.463-0.558l1.93-1.072L30,11.393L24.583,23.169z"></path><path d="M51,35c-0.258,0-0.514-0.1-0.707-0.293L49,33.414l-1.293,1.293c-0.201,0.202-0.479,0.307-0.762,0.291   c-0.284-0.016-0.548-0.151-0.726-0.373l-2.475-3.093c-0.227-0.284-0.282-0.668-0.145-1.005l4.475-10.907   c0.154-0.374,0.518-0.619,0.923-0.62c0.001,0,0.002,0,0.003,0c0.404,0,0.768,0.242,0.923,0.615l5.042,12.1   c0.188,0.452,0.022,0.974-0.393,1.232l-3.042,1.9C51.366,34.95,51.183,35,51,35z M49,31c0.256,0,0.512,0.098,0.707,0.293   l1.438,1.438l1.647-1.029l-3.785-9.084l-3.333,8.125l1.409,1.761l1.21-1.21C48.488,31.098,48.744,31,49,31z"></path><path d="M23,9c-0.552,0-1-0.447-1-1c0-1.103-0.897-2-2-2c-0.552,0-1-0.447-1-1s0.448-1,1-1c1.064,0,2.032,0.418,2.75,1.098   C23.774,3.252,25.744,2,28,2c0.552,0,1,0.447,1,1s-0.448,1-1,1c-2.206,0-4,1.794-4,4C24,8.553,23.552,9,23,9z"></path><path d="M56,11H46c-2.206,0-4-1.794-4-4c0-2.343,2.07-4.234,4.409-3.978C47.185,1.224,48.979,0,51,0s3.815,1.224,4.591,3.022   C57.929,2.77,60,4.657,60,7C60,9.206,58.206,11,56,11z M46,5c-1.103,0-2,0.897-2,2s0.897,2,2,2h10c1.103,0,2-0.897,2-2   c0-1.338-1.355-2.385-2.717-1.859c-0.275,0.108-0.584,0.088-0.843-0.055c-0.259-0.142-0.442-0.391-0.5-0.68   C53.66,3.012,52.424,2,51,2s-2.66,1.012-2.94,2.406c-0.058,0.289-0.241,0.538-0.5,0.68c-0.259,0.143-0.568,0.163-0.843,0.055   C46.477,5.048,46.236,5,46,5z"></path><path d="M14,18H4c-2.206,0-4-1.794-4-4c0-2.343,2.069-4.233,4.409-3.978C5.185,8.224,6.979,7,9,7s3.815,1.224,4.591,3.022   C15.927,9.77,18,11.657,18,14C18,16.206,16.206,18,14,18z M4,12c-1.103,0-2,0.897-2,2s0.897,2,2,2h10c1.103,0,2-0.897,2-2   c0-1.338-1.355-2.385-2.717-1.859c-0.275,0.109-0.583,0.089-0.843-0.055c-0.259-0.142-0.442-0.391-0.5-0.68   C11.66,10.012,10.424,9,9,9s-2.66,1.012-2.94,2.406c-0.058,0.289-0.241,0.538-0.5,0.68c-0.259,0.143-0.568,0.163-0.843,0.055   C4.477,12.048,4.236,12,4,12z"></path><path d="M40,51H30c-2.206,0-4-1.794-4-4c0-2.343,2.072-4.23,4.409-3.978C31.185,41.224,32.979,40,35,40s3.815,1.224,4.591,3.022   C41.931,42.772,44,44.657,44,47C44,49.206,42.206,51,40,51z M30,45c-1.103,0-2,0.897-2,2s0.897,2,2,2h10c1.103,0,2-0.897,2-2   c0-1.338-1.355-2.385-2.717-1.859c-0.275,0.108-0.584,0.088-0.843-0.055c-0.259-0.142-0.442-0.391-0.5-0.68   C37.66,43.012,36.424,42,35,42s-2.66,1.012-2.94,2.406c-0.058,0.289-0.241,0.538-0.5,0.68c-0.259,0.143-0.568,0.162-0.843,0.055   C30.477,45.048,30.236,45,30,45z"></path><path d="M33,60H7c-0.341,0-0.658-0.174-0.842-0.461c-0.184-0.286-0.209-0.647-0.066-0.957l23-50C29.255,8.228,29.609,8,30,8   s0.745,0.228,0.908,0.582l12.428,27.019c0.116,0.252,0.122,0.541,0.017,0.798l-3.34,8.141c-0.11,0.269-0.331,0.476-0.606,0.568   c-0.022,0.007-0.117,0.034-0.14,0.04c-0.275,0.107-0.575,0.086-0.835-0.056c-0.26-0.141-0.434-0.396-0.492-0.687   C37.66,43.012,36.424,42,35,42s-2.66,1.012-2.939,2.405c-0.058,0.29-0.241,0.539-0.5,0.681c-0.259,0.143-0.568,0.162-0.843,0.055   C29.358,44.614,28,45.661,28,47c0,1.103,0.897,2,2,2h6.692c0.333,0,0.645,0.166,0.831,0.443c0.186,0.276,0.221,0.628,0.094,0.937   l-3.692,9C33.771,59.755,33.406,60,33,60z M8.561,58h23.769l2.872-7H30c-2.206,0-4-1.794-4-4c0-2.343,2.072-4.23,4.409-3.978   C31.185,41.224,32.979,40,35,40c1.57,0,3.004,0.739,3.929,1.912l2.409-5.871L30,11.393L8.561,58z"></path><path d="M59,60H33c-0.333,0-0.645-0.166-0.831-0.443c-0.186-0.276-0.221-0.628-0.094-0.937l3.692-9   c0.154-0.375,0.519-0.62,0.925-0.62H40c1.103,0,2-0.897,2-2s-0.897-2-2-2c-0.182,0-0.372,0.035-0.6,0.109   c-0.371,0.121-0.779,0.017-1.044-0.27c-0.266-0.285-0.341-0.699-0.193-1.061l9.912-24.159c0.154-0.374,0.518-0.619,0.922-0.62   c0.001,0,0.002,0,0.003,0c0.404,0,0.768,0.242,0.923,0.615l10,24C59.974,43.737,60,43.868,60,44v15C60,59.553,59.552,60,59,60z    M34.491,58H58V44.2l-8.993-21.583l-8.382,20.432C42.535,43.35,44,45.007,44,47c0,2.206-1.794,4-4,4h-2.637L34.491,58z"></path><path d="M8,38c-0.015,0-0.03,0-0.045-0.001c-0.281-0.013-0.543-0.143-0.723-0.358l-2.167-2.6c-0.238-0.286-0.298-0.682-0.155-1.025   l5.167-12.4C10.232,21.243,10.596,21,11,21c0.404,0,0.768,0.243,0.923,0.615l4.421,10.61c0.133,0.319,0.092,0.685-0.109,0.966   l-2.421,3.39c-0.255,0.357-0.713,0.507-1.13,0.367l-2.414-0.804l-1.563,1.562C8.519,37.896,8.265,38,8,38z M6.99,34.226   l1.078,1.293l1.226-1.226c0.268-0.268,0.664-0.361,1.023-0.241l2.299,0.766l1.669-2.336L11,24.6L6.99,34.226z"></path></g></svg></g></svg>